<svg data-v-0dd9719b="" version="1.0" xmlns="http://www.w3.org/2000/svg" xmlns:xlink="http://www.w3.org/1999/xlink" width="100%" height="100%" viewBox="0 0 340.000000 250.000000" preserveAspectRatio="xMidYMid meet" color-interpolation-filters="sRGB" style="margin: auto;"> <rect data-v-0dd9719b="" x="0" y="0" width="100%" height="100%" fill="#ffffff" fill-opacity="1" class="background"></rect> <rect data-v-0dd9719b="" x="0" y="0" width="100%" height="100%" fill="url(#watermark)" fill-opacity="1" class="watermarklayer"></rect> <g data-v-0dd9719b="" fill="#147dc8" class="icon-text-wrapper icon-svg-group iconsvg" transform="translate(48.13999938964844,100.45593643188477)"><g class="iconsvg-imagesvg" transform="translate(0,5.772947311401367)"><g><rect fill="#147dc8" fill-opacity="0" stroke-width="2" x="0" y="0" width="60" height="37.54223501439119" class="image-rect"></rect> <svg filter="url(#colors5220217673)" x="0" y="0" width="60" height="37.54223501439119" filtersec="colorsf2860937105" class="image-svg-svg primary" style="overflow: visible;"><svg xmlns="http://www.w3.org/2000/svg" viewBox="0 0 92.7 59.5"><path d="M90.7 29.8c0 3.5-2.8 6.3-6.3 6.3-5 0-10.3-6.3-10.3-6.3m16.6 0c0-3.5-2.8-6.3-6.3-6.3-5 0-10.3 6.3-10.3 6.3M2 29.8c0 3.5 2.8 6.3 6.3 6.3 5 0 10.3-6.3 10.3-6.3m0 0s-5.2-6.3-10.3-6.3c-3.5 0-6.3 2.8-6.3 6.3m44.4 27.7l27.8-27.8L46.4 2 18.6 29.8l27.8 27.7z" fill="none" stroke="#333" stroke-width="4" stroke-linejoin="round" stroke-miterlimit="10"></path></svg></svg> <defs><filter id="colors5220217673"><feColorMatrix type="matrix" values="0 0 0 0 0.19921875  0 0 0 0 0.19921875  0 0 0 0 0.19921875  0 0 0 1 0" class="icon-fecolormatrix"></feColorMatrix></filter> <filter id="colorsf2860937105"><feColorMatrix type="matrix" values="0 0 0 0 0.99609375  0 0 0 0 0.99609375  0 0 0 0 0.99609375  0 0 0 1 0" class="icon-fecolormatrix"></feColorMatrix></filter> <filter id="colorsb111852652"><feColorMatrix type="matrix" values="0 0 0 0 0  0 0 0 0 0  0 0 0 0 0  0 0 0 1 0" class="icon-fecolormatrix"></feColorMatrix></filter></defs></g></g> <g transform="translate(67,0)"><g data-gra="path-name" fill-rule="" class="tp-name iconsvg-namesvg" transform="translate(0,0)"><g transform="scale(1)"><g><path d="M21.49-29.64C19.64-26.11 17.49-23.45 13.89-20.73L13.89-27.38 2.44-27.38 2.44 0.84 13.89 0.84 13.89-18.22 15.67-15.02C16.44-15.56 17.13-16.11 17.75-16.69L17.75-14.62 30.55-14.62 30.55-16.91C31.35-16.22 32.15-15.53 32.98-14.91L35.38-20.25C31.71-23.05 28.36-26.44 26.8-29.64ZM24.18-24.15C25.02-22.8 26.15-21.35 27.45-19.93L21.02-19.93C22.22-21.35 23.27-22.73 24.18-24.15ZM9.82-4.98L7.49-4.98 7.49-21.67 9.82-21.67ZM15.67 3.64L32.65 3.64 32.65-12.22 15.67-12.22ZM20.84-6.87L27.45-6.87 27.45-1.78 20.84-1.78ZM63.27-20.69L61.53-16.65 66.76-14.69 69.2-20.69 69.2-26.4 49.6-26.4C50-27.27 50.29-28.15 50.62-28.98L44.55-29.89C43.2-26.11 40.11-20.62 37.96-17.96L43.2-14.8C44.51-16.58 45.75-18.55 46.87-20.69ZM51.53-4.25C51.53-2.55 50.84-2.18 49.24-2L47.27-1.78 49.2 4.33 51.67 4.07C55.89 3.67 57.45 2.84 57.45-0.95L57.45-19.05 51.53-19.05ZM58.73-13.24C60.76-9.16 63.53-3.35 65.27 1.09L71.05-1.35C69.2-5.71 65.85-11.78 64.04-15.45ZM43.64-15.38C41.89-10.69 39.49-6.55 36.69-2.29L42.18 0.65C44.62-3.71 47.53-9.31 48.98-13.31ZM106.62-7.82L100.62-7.82 100.62-10.47 104.51-10.47 104.51-14.98 90.69-14.98 90.69-16.69C93.85-16.69 100.29-16.98 103.35-17.45L102.87-19.67 105.42-19.67 105.42-27.75 98.07-27.75C97.82-28.58 97.64-29.49 97.6-29.6L91.16-29.56C91.42-29.09 91.56-28.44 91.82-27.75L83.53-27.75 83.53-19.38 85.13-19.38 85.13-7.82 82.58-7.82 82.58-3.2 89.45-3.2C87.31-2.22 84.22-0.98 82.15-0.29L84.91 4.15C87.82 3.09 91.13 1.42 93.27 0.25L90.91-3.2 97.24-3.2 95.24 0.18C97.56 1.05 101.05 2.8 103.56 4.15L105.82-0.22C103.89-1.09 101.05-2.33 98.73-3.2L106.62-3.2ZM83.27-25.78C81.82-26.95 79.38-28.62 77.56-29.56L74.44-24.98C75.89-24.11 78.76-22.04 80.25-20.87ZM99.71-23.09L99.71-21.49C96.51-21.24 92.8-20.98 89.13-20.87L89.13-23.09ZM82.69-16.69C81.31-17.89 78.91-19.6 76.87-20.87L73.67-16.4C75.42-15.24 78.29-13.05 79.6-11.82ZM77.2-11.02C76.55-7.67 74.87-0.62 73.89 2.51L79.49 4.04C80.25 0.73 81.75-6.04 82.44-9.53ZM90.69-10.47L95.45-10.47 95.45-7.82 90.69-7.82ZM119.49-24.11C118.11-25.89 115.31-28.76 114.04-29.93L109.82-26.11C111.13-24.91 114.25-21.35 115.42-19.67ZM140.87-14.91L126.51-14.91 126.51-16.55 140.25-16.55 140.25-27.38 133.2-27.38C133.49-28.29 133.82-29.27 133.85-29.67L126.91-29.67C126.76-28.98 126.58-28.11 126.4-27.38L120.62-27.38 120.62-3.75 140.87-3.75ZM134.62-20.62L126.51-20.62 126.51-22.44 134.62-22.44ZM125.64-1.89C122.11-2.04 119.75-3.16 118.04-5.78L118.04-18.18 109.49-18.18 109.49-12.62 112.69-12.62 112.69-5.6C111.09-3.85 109.78-2.65 108.33-1.31L111.27 4.44C112.25 3.45 114.18 1.31 115.64-0.33 118.33 2.36 120.36 3.42 124.51 3.53 130.07 3.71 136.22 3.64 141.78 3.38L143.05-2.18C137.2-1.85 131.2-1.64 125.64-1.89ZM135.13-8.47L126.51-8.47 126.51-10.33 135.13-10.33ZM179.16-2.51C174.18-3.38 170.22-4.69 166.91-6.55 169.78-9.85 171.64-13.85 173.09-19.2L178.07-19.2 178.07-25.05 165.75-25.05C165.6-26.33 165.42-27.78 165.16-29.64L158.04-29.31C158.4-27.78 158.69-26.36 158.91-25.05L145.85-25.05 145.85-19.2 150.58-19.2C152-14.07 154-9.96 156.95-6.62 153.89-4.98 150-3.6 144.87-2.29L148.22 4C154.07 2.15 158.51 0.18 162-2.18 165.64 0.29 170.15 2.18 175.93 3.89ZM166.44-19.2C165.45-15.53 164.11-12.69 161.93-10.36 159.64-12.76 158.07-15.71 157.24-19.2Z" transform="translate(-2.440000057220459, 29.93000030517578)"></path></g> <!----> <!----> <!----> <!----> <!----> <!----> <!----></g></g> <g data-gra="path-slogan" fill-rule="" class="tp-slogan iconsvg-slogansvg" fill="#333333" transform="translate(38.814998626708984,40.369998931884766)"><!----> <!----> <g transform="scale(1, 1)"><g transform="scale(1)"><path d="M2.06-5.06L6.56-5.06L6.56-8.58L7.73-8.58L7.73 0L6.56 0L6.56-3.98L2.06-3.98L2.06 0L0.89 0L0.89-8.58L2.06-8.58L2.06-5.06ZM15.19 0L14.34-2.48L10.88-2.48L9.98 0L8.81 0L12.05-8.58L13.36-8.58L16.45 0L15.19 0ZM12.61-7.31L11.25-3.52L13.92-3.52L12.66-7.31L12.61-7.31ZM21.61-3.70L18.80-3.70L18.80 0L17.63 0L17.63-8.58L21.61-8.58Q24.47-8.58 24.47-6.28L24.47-6.28Q24.47-4.88 23.25-4.22L23.25-4.22Q24.28-3.94 24.28-2.58L24.28-2.58L24.38-1.03Q24.33-0.38 24.80-0.19L24.80-0.19L24.80 0L23.34 0Q23.20-0.61 23.16-2.16L23.16-2.16Q23.20-3.70 21.61-3.70L21.61-3.70ZM21.70-7.64L18.80-7.64L18.80-4.69L21.52-4.69Q23.25-4.69 23.25-6.19L23.25-6.19Q23.25-7.64 21.70-7.64L21.70-7.64ZM29.34-7.64L27.28-7.64L27.28-4.97L29.34-4.97Q31.17-4.92 31.13-6.38L31.13-6.38Q31.13-7.64 29.34-7.64L29.34-7.64ZM29.81 0L26.11 0L26.11-8.58L29.91-8.58Q32.20-8.48 32.30-6.42L32.30-6.42Q32.30-5.16 31.17-4.64L31.17-4.64Q32.77-4.08 32.77-2.53L32.77-2.53Q32.63-0.09 29.81 0L29.81 0ZM29.53-3.98L27.28-3.98L27.28-0.98L29.77-0.98Q31.55-1.03 31.59-2.53L31.59-2.53Q31.59-3.98 29.53-3.98L29.53-3.98ZM34.27-8.58L35.44-8.58L35.44 0L34.27 0L34.27-8.58ZM38.81-8.58L43.13-1.64L43.13-8.58L44.25-8.58L44.25 0L42.94 0L38.58-6.94L38.53-6.94L38.53 0L37.41 0L37.41-8.58L38.81-8.58ZM50.20-1.03L55.50-1.03L55.50 0L48.75 0L48.75-0.94L54-7.59L49.13-7.59L49.13-8.58L55.50-8.58L55.50-7.59L50.20-1.03ZM57.80-5.06L62.30-5.06L62.30-8.58L63.47-8.58L63.47 0L62.30 0L62.30-3.98L57.80-3.98L57.80 0L56.63 0L56.63-8.58L57.80-8.58L57.80-5.06ZM70.92-3.19L70.92-8.58L72.09-8.58L72.09-3.05Q71.95 0.05 68.58 0.14L68.58 0.14Q65.44 0.05 65.30-2.86L65.30-2.86L65.30-8.58L66.47-8.58L66.47-3.19Q66.52-0.84 68.63-0.80L68.63-0.80Q70.92-0.84 70.92-3.19L70.92-3.19ZM78.66-7.13L78.61-7.13L76.64 0L75.42 0L73.17-8.58L74.39-8.58L76.03-1.59L76.08-1.59L78-8.58L79.27-8.58L81.19-1.59L81.23-1.59L82.83-8.58L84.09-8.58L81.84 0L80.63 0L78.66-7.13ZM86.48-1.03L91.64-1.03L91.64 0L85.31 0L85.31-8.58L91.55-8.58L91.55-7.59L86.48-7.59L86.48-4.92L91.17-4.92L91.17-3.89L86.48-3.89L86.48-1.03ZM94.55-8.58L98.86-1.64L98.86-8.58L99.98-8.58L99.98 0L98.67 0L94.31-6.94L94.27-6.94L94.27 0L93.14 0L93.14-8.58L94.55-8.58Z" transform="translate(-0.890625, 8.578125)"></path></g></g></g></g></g><defs v-gra="od"></defs></svg>